<?xml version="1.0" encoding="UTF-8" standalone="no"?>
<svg width="78px" height="40px" viewBox="0 0 78 40" version="1.1" xmlns="http://www.w3.org/2000/svg" xmlns:xlink="http://www.w3.org/1999/xlink">
    <!-- Generator: Sketch 39.1 (31720) - http://www.bohemiancoding.com/sketch -->
    <title>exam</title>
    <desc>Created with Sketch.</desc>
    <defs></defs>
    <g id="Etusivu" stroke="none" stroke-width="1" fill="none" fill-rule="evenodd">
        <g id="Opiskelija---Etusivu-MOBIILI" transform="translate(-20.000000, -14.000000)">
            <g id="exam" transform="translate(20.000000, 14.000000)">
                <path d="M1.44518949,31.1088458 L10.2261563,31.1088458 C11.1871143,31.1088458 11.8188592,31.0180441 12.1185208,30.8379189 C12.4168005,30.6575824 12.5673222,30.2690356 12.5673222,29.675129 C12.5673222,28.2020296 12.0467679,26.8772749 11.0056591,25.7021318 C9.96582595,24.5252994 8.63759909,23.938467 7.02533683,23.938467 C5.464843,23.938467 4.14373829,24.4876061 3.06468019,25.5845119 C1.98392128,26.6844796 1.44518949,27.9689015 1.44518949,29.4416842 L1.44518949,31.1088458 Z M0.0789069869,32.8558285 L0.0789069869,29.4416842 C0.0789069869,27.5817273 0.761357285,25.9730588 2.12753349,24.6162067 C3.49381599,23.2593546 5.12585017,22.5816149 7.02533683,22.5816149 C8.89941763,22.5816149 10.5189083,23.246579 11.8835963,24.5771409 C13.2498788,25.9088641 13.9336047,27.5690572 13.9336047,29.5579315 C13.9336047,30.2313423 13.8547296,30.773513 13.6986803,31.1857105 C13.5424183,31.5995974 13.2821942,31.8971314 12.9177955,32.0775734 C12.5533968,32.2592824 12.2225892,32.3681389 11.9229276,32.4072047 C11.623266,32.4463762 11.2139021,32.4660147 10.6932414,32.4660147 L1.44518949,32.4660147 L1.44518949,32.8558285 C1.44518949,34.5875016 2.05578054,35.9707496 3.27845084,37.0035662 C4.50101483,38.0377555 6.08819013,38.5549029 8.03965782,38.5549029 C9.00221038,38.5549029 9.80967027,38.4192283 10.4596989,38.1483013 C11.1097275,37.8757906 11.5979664,37.6115154 11.9229276,37.3529417 C12.247995,37.0944735 12.4886597,36.965873 12.6448154,36.965873 C12.8262707,36.965873 12.9895485,37.0426321 13.1329481,37.1980508 C13.2750721,37.3529417 13.3482069,37.5079381 13.3482069,37.6632512 C13.3482069,37.9218249 13.1386883,38.225166 12.7234779,38.5745414 C12.3069919,38.9223331 11.6697194,39.2326427 10.8114478,39.5038864 C9.95190056,39.7748133 9.00221038,39.9116494 7.96227093,39.9116494 C5.64651085,39.9116494 3.75414633,39.2593553 2.28379547,37.9539223 C0.813444613,36.6484893 0.0789069869,34.9492303 0.0789069869,32.8558285 L0.0789069869,32.8558285 Z" id="Fill-1" fill="#FFFFFF"></path>
                <path d="M37.6997769,34.794255 C37.6997769,36.0351765 38.0697032,36.97149 38.8112567,37.6044624 C39.5528102,38.2391241 40.5220597,38.5548184 41.719643,38.5548184 C43.1236623,38.5548184 44.4575231,38.0641725 45.7196309,37.0817191 C46.9801442,36.0993712 47.6119954,35.1700263 47.6119954,34.2911502 L47.6119954,31.0350642 L45.4650408,31.0350642 C44.2943515,31.0350642 43.3123459,31.07413 42.5187052,31.1508891 C41.7250644,31.2277538 40.9246203,31.3897187 40.118436,31.6359392 C39.3121455,31.8818429 38.7071883,32.2689116 38.304734,32.7984123 C37.9008978,33.3282297 37.6997769,33.9936162 37.6997769,34.794255 M36.3334944,34.794255 C36.3334944,32.8558496 37.1073633,31.5184249 38.6549947,30.7817696 C40.2028388,30.0456423 42.4608776,29.6777897 45.4270915,29.6777897 L47.6119954,29.6777897 L47.6119954,29.30772 C47.6119954,27.6542842 47.9032593,26.9417019 47.0449877,25.7398462 C46.1854404,24.5393631 44.1776334,23.9383825 42.4608776,23.9383825 C41.7575924,23.9383825 41.1005479,24.0222157 40.4897443,24.1899877 C39.877665,24.3576541 39.403564,24.532289 39.0658468,24.712731 C38.726854,24.89444 38.5058549,24.9853473 38.4017865,24.9853473 C38.1936498,24.9853473 38.0248444,24.89444 37.8938819,24.712731 C37.764514,24.532289 37.6997769,24.3646226 37.6997769,24.2096262 C37.6997769,23.8211849 38.2133154,23.4533324 39.2403925,23.103957 C40.2688515,22.7562709 41.3678941,22.5815304 42.5385834,22.5815304 C44.775681,22.5815304 47.1281148,23.285666 48.1564675,24.6943595 C49.1836508,26.1029475 48.9781716,27.1638493 48.9781716,29.30772 L48.9781716,38.9810586 C48.9781716,39.4463646 48.7557906,39.6785424 48.3142176,39.6785424 C48.105762,39.6785424 47.9369566,39.614031 47.8074824,39.4841634 C47.6766262,39.3555628 47.6119954,39.1877908 47.6119954,38.9810586 L47.6119954,36.9657885 C45.8941766,38.9293227 43.9439845,39.9116705 41.7575924,39.9116705 C40.1451175,39.9116705 38.8366626,39.4784619 37.8363733,38.6119391 C36.8344895,37.7471055 36.3334944,36.4740867 36.3334944,34.794255" id="Fill-3" fill="#FFFFFF"></path>
                <path d="M53.152684,38.9810586 L53.152684,24.9041537 C53.152684,24.465138 53.373683,24.2443631 53.8168505,24.2443631 C54.2853176,24.2443631 54.5187539,24.465138 54.5187539,24.9041537 L54.5187539,25.5274124 C55.6372495,23.5639838 57.3806868,22.5815304 59.7486405,22.5815304 C61.0753792,22.5815304 62.2517024,22.9362906 63.2801613,23.647817 C64.3072384,24.3576541 65.0811073,25.2939676 65.6016617,26.4580244 C66.2517965,25.1920796 67.1113438,24.2290536 68.1777521,23.5696853 C69.2445856,22.9112673 70.3630812,22.5815304 71.5334516,22.5815304 C73.2768889,22.5815304 74.7794489,23.2146084 76.041663,24.4805532 C77.3037708,25.7469203 77.9340275,27.4391052 77.9340275,29.5579526 L77.9340275,38.9810586 C77.9340275,39.1615006 77.8623809,39.3234655 77.7201506,39.4661086 C77.5765384,39.6070625 77.4133668,39.6785424 77.2318053,39.6785424 C77.0488618,39.6785424 76.8928125,39.6070625 76.7633382,39.4661086 C76.6324821,39.3234655 76.5679576,39.1615006 76.5679576,38.9810586 L76.5679576,29.5579526 C76.5679576,27.8012562 76.0544191,26.4260326 75.027342,25.4309092 C73.9985641,24.4357858 72.8224535,23.9383825 71.4958212,23.9383825 C70.1152944,23.9383825 68.8927304,24.4484558 67.8263221,25.4686025 C66.7595948,26.4901218 66.226497,27.7758106 66.226497,29.3257747 L66.226497,39.0201244 C66.226497,39.4590346 65.9928481,39.6785424 65.5243811,39.6785424 C65.0811073,39.6785424 64.8601082,39.4590346 64.8601082,39.0201244 L64.8601082,29.3648406 C64.8601082,27.8403221 64.3734637,26.5545276 63.3968795,25.5077739 C62.4218897,24.4611258 61.2317474,23.9383825 59.8260274,23.9383825 C58.4219018,23.9383825 57.1853062,24.4555299 56.1185789,25.4883466 C55.0521706,26.5225358 54.5187539,27.8793879 54.5187539,29.5579526 L54.5187539,38.9810586 C54.5187539,39.1615006 54.4471072,39.3234655 54.303495,39.4661086 C54.1615836,39.6070625 53.9985184,39.6785424 53.8168505,39.6785424 C53.6339071,39.6785424 53.4778577,39.6070625 53.3483835,39.4661086 C53.2175274,39.3234655 53.152684,39.1615006 53.152684,38.9810586" id="Fill-5" fill="#FFFFFF"></path>
                <path d="M32.3680011,39.8923171 C32.1799552,39.8923171 31.9922282,39.8196757 31.8509546,39.6750265 L25.4344336,33.1038333 L19.0178063,39.6750265 C18.7409994,39.958729 18.2848632,39.9654864 17.999127,39.6904417 C17.7136034,39.4152914 17.7065875,38.9623386 17.9837134,38.6786361 L24.9172809,31.5780478 C25.1886665,31.3000468 25.6800945,31.3000468 25.9514801,31.5780478 L32.8850475,38.6786361 C33.1621734,38.9623386 33.1551575,39.4152914 32.8696339,39.6904417 C32.7297423,39.8251661 32.5487122,39.8923171 32.3680011,39.8923171" id="Fill-7" fill="#84BF41"></path>
                <path d="M25.4357199,30.5276304 C25.247674,30.5276304 25.0666439,30.4546723 24.9314295,30.3230098 L17.9964801,23.5701076 C17.7122321,23.2935848 17.7077675,22.8404209 17.9863815,22.5583021 C18.264783,22.2757609 18.7207066,22.271432 19.0050609,22.5482716 L25.3574826,28.7338743 L47.1644271,0.325080685 C47.4051981,0.0109701137 47.8571885,-0.0499514996 48.1739645,0.189722785 C48.4901027,0.429502653 48.5513319,0.878443208 48.3099231,1.19255378 L26.0085742,30.2458284 C25.883352,30.4090603 25.693499,30.5110538 25.4874883,30.5258355 C25.4701613,30.5269969 25.4528343,30.5276304 25.4357199,30.5276304" id="Fill-9" fill="#84BF41"></path>
            </g>
        </g>
    </g>
</svg>