<?xml version="1.0" encoding="UTF-8" standalone="no"?>
<svg width="20px" height="19px" viewBox="0 0 20 19" version="1.1" xmlns="http://www.w3.org/2000/svg" xmlns:xlink="http://www.w3.org/1999/xlink">
    <!-- Generator: Sketch 41 (35326) - http://www.bohemiancoding.com/sketch -->
    <title>book - FontAwesome</title>
    <desc>Created with Sketch.</desc>
    <defs>
        <path d="M51.2073224,243.101562 C51.519824,243.546877 51.5901358,244.050778 51.4182599,244.613281 L48.1956037,255.230469 C48.0471654,255.730471 47.7483403,256.150389 47.2991193,256.490234 C46.8498983,256.83008 46.3713875,257 45.8635724,257 L35.0471662,257 C34.4456007,257 33.8655283,256.791018 33.3069318,256.373047 C32.7483353,255.955076 32.3596673,255.441409 32.1409162,254.832031 C31.9534152,254.308591 31.9456028,253.812502 32.1174787,253.34375 C32.1174787,253.3125 32.1291973,253.207032 32.1526349,253.027344 C32.1760725,252.847655 32.1916974,252.703126 32.1995099,252.59375 C32.2073225,252.53125 32.1956038,252.447266 32.1643537,252.341797 C32.1331035,252.236328 32.1213849,252.160156 32.1291974,252.113281 C32.1448225,252.027343 32.1760722,251.945313 32.2229474,251.867188 C32.2698227,251.789062 32.3342751,251.697266 32.4163068,251.591797 C32.4983385,251.486328 32.5627909,251.394532 32.6096662,251.316406 C32.7893546,251.01953 32.9651341,250.662111 33.1370099,250.244141 C33.3088858,249.82617 33.4260721,249.468751 33.4885724,249.171875 C33.51201,249.09375 33.5139632,248.976563 33.4944318,248.820312 C33.4749005,248.664062 33.4729474,248.554688 33.4885724,248.492188 C33.51201,248.40625 33.5784156,248.296876 33.6877912,248.164062 C33.7971667,248.031249 33.8635723,247.941406 33.8870099,247.894531 C34.0510733,247.61328 34.2151341,247.253908 34.3791974,246.816406 C34.5432608,246.378904 34.640916,246.027345 34.6721662,245.761719 C34.6799787,245.691406 34.6702132,245.566407 34.6428693,245.386719 C34.6155254,245.20703 34.6174785,245.097656 34.6487287,245.058594 C34.6799788,244.957031 34.7659155,244.837891 34.9065412,244.701172 C35.0471669,244.564452 35.1331035,244.476563 35.1643537,244.4375 C35.3127919,244.234374 35.4788059,243.904299 35.6624006,243.447266 C35.8459952,242.990232 35.953416,242.613283 35.9846662,242.316406 C35.9924787,242.253906 35.9807601,242.154298 35.9495099,242.017578 C35.9182598,241.880859 35.9104474,241.777344 35.9260724,241.707031 C35.9416975,241.644531 35.9768534,241.574219 36.0315412,241.496094 C36.086229,241.417968 36.1565408,241.328126 36.2424787,241.226562 C36.3284166,241.124999 36.3948222,241.042969 36.4416974,240.980469 C36.5041977,240.886718 36.5686502,240.767579 36.6350568,240.623047 C36.7014634,240.478515 36.7600566,240.341798 36.8108381,240.212891 C36.8616196,240.083984 36.9241189,239.94336 36.9983381,239.791016 C37.0725572,239.638671 37.1487283,239.513672 37.2268537,239.416016 C37.3049791,239.318359 37.4084937,239.226563 37.5374006,239.140625 C37.6663075,239.054687 37.806931,239.009766 37.9592756,239.005859 C38.1116201,239.001953 38.2971651,239.023437 38.5159162,239.070313 L38.5041974,239.105469 C38.8010739,239.035156 39.0002907,239 39.1018537,239 L48.0198224,239 C48.5979503,239 49.0432584,239.218748 49.3557599,239.65625 C49.6682615,240.093752 49.7385733,240.60156 49.5666974,241.179688 L46.3557599,251.796875 C46.0745085,252.726567 45.7952144,253.326171 45.5178693,253.595703 C45.2405242,253.865236 44.7385761,254 44.0120099,254 L33.8284162,254 C33.6174776,254 33.4690416,254.058593 33.3831037,254.175781 C33.2971658,254.300782 33.2932595,254.468749 33.3713849,254.679688 C33.5588859,255.226565 34.1213802,255.5 35.0588849,255.5 L45.8752912,255.5 C46.1018548,255.5 46.3206026,255.439454 46.5315412,255.318359 C46.7424797,255.197265 46.8791971,255.035157 46.9416974,254.832031 L50.4573224,243.265625 C50.5120102,243.093749 50.5315413,242.871095 50.5159162,242.597656 C50.8127927,242.714844 51.0432591,242.882811 51.2073224,243.101562 L51.2073224,243.101562 Z M38.7385724,243.125 C38.7073223,243.226563 38.7151347,243.314453 38.7620099,243.388672 C38.8088852,243.462891 38.8870094,243.5 38.9963849,243.5 L46.1213849,243.5 C46.2229479,243.5 46.3225563,243.462891 46.4202131,243.388672 C46.5178698,243.314453 46.5823223,243.226563 46.6135724,243.125 L46.8596662,242.375 C46.8909163,242.273437 46.8831039,242.185547 46.8362287,242.111328 C46.7893534,242.037109 46.7112292,242 46.6018537,242 L39.4768537,242 C39.3752907,242 39.2756823,242.037109 39.1780256,242.111328 C39.0803688,242.185547 39.0159163,242.273437 38.9846662,242.375 L38.7385724,243.125 Z M37.7659162,246.125 C37.734666,246.226563 37.7424784,246.314453 37.7893537,246.388672 C37.8362289,246.462891 37.9143531,246.5 38.0237287,246.5 L45.1487287,246.5 C45.2502917,246.5 45.3499001,246.462891 45.4475568,246.388672 C45.5452135,246.314453 45.609666,246.226563 45.6409162,246.125 L45.8870099,245.375 C45.9182601,245.273437 45.9104477,245.185547 45.8635724,245.111328 C45.8166972,245.037109 45.738573,245 45.6291974,245 L38.5041974,245 C38.4026344,245 38.303026,245.037109 38.2053693,245.111328 C38.1077126,245.185547 38.0432601,245.273437 38.0120099,245.375 L37.7659162,246.125 Z" id="path-1"></path>
        <filter x="-50%" y="-50%" width="200%" height="200%" filterUnits="objectBoundingBox" id="filter-2">
            <feOffset dx="0" dy="1" in="SourceAlpha" result="shadowOffsetOuter1"></feOffset>
            <feColorMatrix values="0 0 0 0 0.109803922   0 0 0 0 0.109803922   0 0 0 0 0.109803922  0 0 0 1 0" type="matrix" in="shadowOffsetOuter1"></feColorMatrix>
        </filter>
    </defs>
    <g id="Kielentarkastus" stroke="none" stroke-width="1" fill="none" fill-rule="evenodd">
        <g id="Kielentarkastus---etusivu-Copy" transform="translate(-32.000000, -239.000000)">
            <g id="book---FontAwesome">
                <use fill="black" fill-opacity="1" filter="url(#filter-2)" xlink:href="#path-1"></use>
                <use fill="#FFFFFF" fill-rule="evenodd" xlink:href="#path-1"></use>
            </g>
        </g>
    </g>
</svg>