<?xml version="1.0" encoding="UTF-8" standalone="no"?>
<svg width="17px" height="20px" viewBox="0 0 17 20" version="1.1" xmlns="http://www.w3.org/2000/svg" xmlns:xlink="http://www.w3.org/1999/xlink">
    <!-- Generator: Sketch 40.2 (33826) - http://www.bohemiancoding.com/sketch -->
    <title>User - FontAwesome</title>
    <desc>Created with Sketch.</desc>
    <defs>
        <path d="M49.5,136.250558 C49.5,137.188063 49.2148466,137.92829 48.6445312,138.471261 C48.0742159,139.014233 47.316411,139.285714 46.3710937,139.285714 L36.1289062,139.285714 C35.183589,139.285714 34.4257841,139.014233 33.8554688,138.471261 C33.2851534,137.92829 33,137.188063 33,136.250558 C33,135.836493 33.0136717,135.432201 33.0410156,135.037667 C33.0683595,134.643134 33.1230465,134.217357 33.2050781,133.760324 C33.2871098,133.30329 33.3906244,132.879466 33.515625,132.488839 C33.6406256,132.098212 33.8085927,131.717357 34.0195312,131.346261 C34.2304698,130.975166 34.4726549,130.658762 34.7460937,130.397042 C35.0195326,130.135322 35.3535137,129.92634 35.7480469,129.770089 C36.1425801,129.613839 36.5781226,129.535714 37.0546875,129.535714 C37.1250004,129.535714 37.2890612,129.619698 37.546875,129.787667 C37.8046888,129.955637 38.0957015,130.143135 38.4199219,130.350167 C38.7441422,130.5572 39.166013,130.744698 39.6855469,130.912667 C40.2050807,131.080637 40.7265599,131.164621 41.25,131.164621 C41.7734401,131.164621 42.2949193,131.080637 42.8144531,130.912667 C43.333987,130.744698 43.7558578,130.5572 44.0800781,130.350167 C44.4042985,130.143135 44.6953112,129.955637 44.953125,129.787667 C45.2109388,129.619698 45.3749996,129.535714 45.4453125,129.535714 C45.9218774,129.535714 46.3574199,129.613839 46.7519531,129.770089 C47.1464863,129.92634 47.4804674,130.135322 47.7539062,130.397042 C48.0273451,130.658762 48.2695302,130.975166 48.4804687,131.346261 C48.6914073,131.717357 48.8593744,132.098212 48.984375,132.488839 C49.1093756,132.879466 49.2128902,133.30329 49.2949219,133.760324 C49.3769535,134.217357 49.4316405,134.643134 49.4589844,135.037667 C49.4863283,135.432201 49.5,135.836493 49.5,136.250558 L49.5,136.250558 Z M45.75,125.785714 C45.75,127.027908 45.3105513,128.088444 44.4316406,128.967355 C43.55273,129.846266 42.4921937,130.285714 41.25,130.285714 C40.0078063,130.285714 38.94727,129.846266 38.0683594,128.967355 C37.1894487,128.088444 36.75,127.027908 36.75,125.785714 C36.75,124.543521 37.1894487,123.482984 38.0683594,122.604074 C38.94727,121.725163 40.0078063,121.285714 41.25,121.285714 C42.4921937,121.285714 43.55273,121.725163 44.4316406,122.604074 C45.3105513,123.482984 45.75,124.543521 45.75,125.785714 L45.75,125.785714 Z" id="path-1"></path>
        <filter x="-50%" y="-50%" width="200%" height="200%" filterUnits="objectBoundingBox" id="filter-2">
            <feOffset dx="0" dy="1" in="SourceAlpha" result="shadowOffsetOuter1"></feOffset>
            <feColorMatrix values="0 0 0 0 0.109803922   0 0 0 0 0.109803922   0 0 0 0 0.109803922  0 0 0 1 0" type="matrix" in="shadowOffsetOuter1"></feColorMatrix>
        </filter>
    </defs>
    <g id="Etusivu" stroke="none" stroke-width="1" fill="none" fill-rule="evenodd">
        <g id="Opettaja---Etusivu" transform="translate(-33.000000, -297.000000)">
            <g id="valikko" transform="translate(0.000000, 176.000000)">
                <g id="User---FontAwesome">
                    <use fill="black" fill-opacity="1" filter="url(#filter-2)" xlink:href="#path-1"></use>
                    <use fill="#E7E7E7" fill-rule="evenodd" xlink:href="#path-1"></use>
                </g>
            </g>
        </g>
    </g>
</svg>