<?xml version="1.0" encoding="UTF-8" standalone="no"?>
<svg width="18px" height="19px" viewBox="0 0 18 19" version="1.1" xmlns="http://www.w3.org/2000/svg" xmlns:xlink="http://www.w3.org/1999/xlink">
    <!-- Generator: Sketch 40.2 (33826) - http://www.bohemiancoding.com/sketch -->
    <title>pencil - FontAwesome</title>
    <desc>Created with Sketch.</desc>
    <defs>
        <path d="M36.3128713,79.4792079 L37.3940594,78.3980198 L34.6019802,75.6059406 L33.5207921,76.6871287 L33.5207921,77.9584158 L35.0415842,77.9584158 L35.0415842,79.4792079 L36.3128713,79.4792079 Z M42.5267327,68.4534653 C42.5267327,68.279207 42.4396048,68.1920792 42.2653465,68.1920792 C42.1861382,68.1920792 42.1188122,68.2198017 42.0633663,68.2752475 L35.6237624,74.7148515 C35.5683166,74.7702973 35.5405941,74.8376234 35.5405941,74.9168317 C35.5405941,75.09109 35.6277219,75.1782178 35.8019802,75.1782178 C35.8811885,75.1782178 35.9485146,75.1504953 36.0039604,75.0950495 L42.4435644,68.6554455 C42.4990102,68.5999997 42.5267327,68.5326737 42.5267327,68.4534653 L42.5267327,68.4534653 Z M41.8851485,66.1722772 L46.8277228,71.1148515 L36.9425743,81 L32,81 L32,76.0574257 L41.8851485,66.1722772 Z M50,67.3128713 C50,67.7326754 49.8534668,68.0891074 49.560396,68.3821782 L47.5881188,70.3544554 L42.6455446,65.4118812 L44.6178218,63.4514851 C44.9029717,63.1504935 45.2594038,63 45.6871287,63 C46.1069328,63 46.4673252,63.1504935 46.7683168,63.4514851 L49.560396,66.2316832 C49.8534668,66.5405956 50,66.900988 50,67.3128713 L50,67.3128713 Z" id="path-1"></path>
        <filter x="-50%" y="-50%" width="200%" height="200%" filterUnits="objectBoundingBox" id="filter-2">
            <feOffset dx="0" dy="1" in="SourceAlpha" result="shadowOffsetOuter1"></feOffset>
            <feColorMatrix values="0 0 0 0 0.109803922   0 0 0 0 0.109803922   0 0 0 0 0.109803922  0 0 0 1 0" type="matrix" in="shadowOffsetOuter1"></feColorMatrix>
        </filter>
    </defs>
    <g id="Etusivu" stroke="none" stroke-width="1" fill="none" fill-rule="evenodd">
        <g id="Opettaja---Etusivu" transform="translate(-32.000000, -239.000000)">
            <g id="valikko" transform="translate(0.000000, 176.000000)">
                <g id="pencil---FontAwesome">
                    <use fill="black" fill-opacity="1" filter="url(#filter-2)" xlink:href="#path-1"></use>
                    <use fill="#E7E7E7" fill-rule="evenodd" xlink:href="#path-1"></use>
                </g>
            </g>
        </g>
    </g>
</svg>