<?xml version="1.0" encoding="UTF-8" standalone="no"?>
<svg width="30px" height="30px" viewBox="0 0 30 30" version="1.1" xmlns="http://www.w3.org/2000/svg" xmlns:xlink="http://www.w3.org/1999/xlink">
    <!-- Generator: Sketch 39.1 (31720) - http://www.bohemiancoding.com/sketch -->
    <title>Group 6</title>
    <desc>Created with Sketch.</desc>
    <defs></defs>
    <g id="Tenttitila" stroke="none" stroke-width="1" fill="none" fill-rule="evenodd">
        <g id="Tenttitila---kysymystyypit" transform="translate(-983.000000, -804.000000)">
            <g id="Group-6" transform="translate(983.000000, 804.000000)">
                <g id="Checkbox-Circle-Copy-3" fill="#C8C8C8">
                    <g id="Checkbox-Circle">
                        <circle id="Oval-41-Copy-3" transform="translate(15.000000, 15.000000) rotate(-180.000000) translate(-15.000000, -15.000000) " cx="15" cy="15" r="15"></circle>
                    </g>
                </g>
                <g id="pencil30" transform="translate(8.000000, 8.000000)" fill="#FFFFFF">
                    <g id="Group">
                        <path d="M0.0320645161,10.1413065 L0.0320645161,13.9679355 L3.85869355,13.9679355 L11.5119516,6.31467742 L7.68532258,2.48804839 L0.0320645161,10.1413065 L0.0320645161,10.1413065 Z M3.37117742,12.7904677 L3.37117742,12.7904677 L2.3868871,12.7905806 L2.3868871,11.6131129 L1.20953226,11.6131129 L1.20953226,10.6287097 L2.04659677,9.79164516 L4.20824194,11.9532903 L3.37117742,12.7904677 L3.37117742,12.7904677 Z M7.97977419,4.05187097 C8.11458065,4.05187097 8.18198387,4.1193871 8.18198387,4.25419355 C8.18198387,4.3156129 8.16064516,4.36766129 8.11762903,4.41067742 L3.13193548,9.39637097 C3.08903226,9.43916129 3.03687097,9.4606129 2.97556452,9.4606129 C2.84075806,9.4606129 2.77324194,9.39298387 2.77324194,9.25829032 C2.77324194,9.19687097 2.79469355,9.14482258 2.83759677,9.10180645 L7.82329032,4.11622581 C7.86619355,4.07332258 7.91835484,4.05187097 7.97977419,4.05187097 L7.97977419,4.05187097 Z" id="Shape"></path>
                        <path d="M13.6275323,2.5338871 L11.4658871,0.3815 C11.2329677,0.148580645 10.953871,0.0319516129 10.6288226,0.0319516129 C10.2975645,0.0319516129 10.0217419,0.148580645 9.80101613,0.3815 L8.2741129,1.89925806 L12.1007419,5.7258871 L13.6277581,4.19898387 C13.8546935,3.97204839 13.9680484,3.6961129 13.9680484,3.37106452 C13.9679355,3.05222581 13.8545806,2.77312903 13.6275323,2.5338871 L13.6275323,2.5338871 Z" id="Shape"></path>
                    </g>
                </g>
            </g>
        </g>
    </g>
</svg>