<?xml version="1.0" encoding="UTF-8" standalone="no"?>
<svg width="20px" height="20px" viewBox="0 0 20 20" version="1.1" xmlns="http://www.w3.org/2000/svg" xmlns:xlink="http://www.w3.org/1999/xlink">
    <!-- Generator: Sketch 39.1 (31720) - http://www.bohemiancoding.com/sketch -->
    <title>Notification icon</title>
    <desc>Created with Sketch.</desc>
    <defs></defs>
    <g id="Tilavaraus" stroke="none" stroke-width="1" fill="none" fill-rule="evenodd">
        <g id="Tilavarauksen-esteettömyysvalinnat---DESKTOP" transform="translate(-550.000000, -829.000000)">
            <g id="Group-2" transform="translate(330.000000, 489.000000)">
                <g id="Notification-icon" transform="translate(220.000000, 340.000000)">
                    <g id="Group-4">
                        <g id="Notification-icon" fill="#999999">
                            <path d="M10,20 C15.5228475,20 20,15.5228475 20,10 C20,4.4771525 15.5228475,2.27373675e-13 10,2.27373675e-13 C4.4771525,2.27373675e-13 -1.13686838e-13,4.4771525 -1.13686838e-13,10 C-1.13686838e-13,15.5228475 4.4771525,20 10,20 Z" id="Oval-41-Copy-4" transform="translate(10.000000, 10.000000) rotate(-180.000000) translate(-10.000000, -10.000000) "></path>
                        </g>
                        <g id="Group-2" transform="translate(8.000000, 4.000000)" fill="#FFFFFF">
                            <path d="M2,9 C1.17155,9 0.5,9.62957813 0.5,10.40625 C0.5,11.1829219 1.17155,11.8125 2,11.8125 C2.82845,11.8125 3.5,11.1829219 3.5,10.40625 C3.5,9.62957813 2.82845,9 2,9" id="Fill-3"></path>
                            <path d="M0.5,1.475 L0.5,5.9 C0.5,6.7146425 1.17155,7.375 2,7.375 C2.82845,7.375 3.5,6.7146425 3.5,5.9 L3.5,1.475 C3.5,0.6603575 2.82845,0 2,0 C1.17155,0 0.5,0.6603575 0.5,1.475" id="Fill-5"></path>
                        </g>
                    </g>
                </g>
            </g>
        </g>
    </g>
</svg>