<?xml version="1.0" encoding="UTF-8" standalone="no"?>
<svg width="15px" height="15px" viewBox="0 0 15 15" version="1.1" xmlns="http://www.w3.org/2000/svg" xmlns:xlink="http://www.w3.org/1999/xlink">
    <!-- Generator: Sketch 40.3 (33839) - http://www.bohemiancoding.com/sketch -->
    <title>Group 5</title>
    <desc>Created with Sketch.</desc>
    <defs></defs>
    <g id="Symbols" stroke="none" stroke-width="1" fill="none" fill-rule="evenodd">
        <g id="Icons-//-Copy" fill="#979797">
            <g id="Group-5">
                <path d="M13.9285714,13.6607143 L13.9285714,4.55357143 C13.9285714,4.48102642 13.902065,4.41824803 13.8490513,4.36523438 C13.7960377,4.31222072 13.7332593,4.28571429 13.6607143,4.28571429 L4.55357143,4.28571429 C4.48102642,4.28571429 4.41824803,4.31222072 4.36523438,4.36523438 C4.31222072,4.41824803 4.28571429,4.48102642 4.28571429,4.55357143 L4.28571429,13.6607143 C4.28571429,13.7332593 4.31222072,13.7960377 4.36523438,13.8490513 C4.41824803,13.902065 4.48102642,13.9285714 4.55357143,13.9285714 L13.6607143,13.9285714 C13.7332593,13.9285714 13.7960377,13.902065 13.8490513,13.8490513 C13.902065,13.7960377 13.9285714,13.7332593 13.9285714,13.6607143 L13.9285714,13.6607143 Z M15,4.55357143 L15,13.6607143 C15,14.0290197 14.8688629,14.3443067 14.6065848,14.6065848 C14.3443067,14.8688629 14.0290197,15 13.6607143,15 L4.55357143,15 C4.18526602,15 3.86997899,14.8688629 3.60770089,14.6065848 C3.3454228,14.3443067 3.21428571,14.0290197 3.21428571,13.6607143 L3.21428571,4.55357143 C3.21428571,4.18526602 3.3454228,3.86997899 3.60770089,3.60770089 C3.86997899,3.3454228 4.18526602,3.21428571 4.55357143,3.21428571 L13.6607143,3.21428571 C14.0290197,3.21428571 14.3443067,3.3454228 14.6065848,3.60770089 C14.8688629,3.86997899 15,4.18526602 15,4.55357143 L15,4.55357143 Z M11.7857143,1.33928571 L11.7857143,2.67857143 L10.7142857,2.67857143 L10.7142857,1.33928571 C10.7142857,1.26674071 10.6877793,1.20396232 10.6347656,1.15094866 C10.581752,1.097935 10.5189736,1.07142857 10.4464286,1.07142857 L1.33928571,1.07142857 C1.26674071,1.07142857 1.20396232,1.097935 1.15094866,1.15094866 C1.097935,1.20396232 1.07142857,1.26674071 1.07142857,1.33928571 L1.07142857,10.4464286 C1.07142857,10.5189736 1.097935,10.581752 1.15094866,10.6347656 C1.20396232,10.6877793 1.26674071,10.7142857 1.33928571,10.7142857 L2.67857143,10.7142857 L2.67857143,11.7857143 L1.33928571,11.7857143 C0.970980301,11.7857143 0.655693276,11.6545772 0.393415179,11.3922991 C0.131137081,11.130021 0,10.814734 0,10.4464286 L0,1.33928571 C0,0.970980301 0.131137081,0.655693276 0.393415179,0.393415179 C0.655693276,0.131137081 0.970980301,0 1.33928571,0 L10.4464286,0 C10.814734,0 11.130021,0.131137081 11.3922991,0.393415179 C11.6545772,0.655693276 11.7857143,0.970980301 11.7857143,1.33928571 L11.7857143,1.33928571 Z" id="clone---FontAwesome-Copy"></path>
            </g>
        </g>
    </g>
</svg>