<?xml version="1.0" encoding="UTF-8" standalone="no"?>
<svg width="14px" height="15px" viewBox="0 0 14 15" version="1.1" xmlns="http://www.w3.org/2000/svg" xmlns:xlink="http://www.w3.org/1999/xlink">
    <!-- Generator: Sketch 40.3 (33839) - http://www.bohemiancoding.com/sketch -->
    <title>Group 5</title>
    <desc>Created with Sketch.</desc>
    <defs></defs>
    <g id="Symbols" stroke="none" stroke-width="1" fill="none" fill-rule="evenodd">
        <g id="Icons-//-delete" fill="#979797">
            <g id="Group-5">
                <path d="M5,5.9375 L5,11.5625 C5,11.6536463 4.97070342,11.7285153 4.91210937,11.7871094 C4.85351533,11.8457034 4.77864629,11.875 4.6875,11.875 L4.0625,11.875 C3.97135371,11.875 3.89648467,11.8457034 3.83789062,11.7871094 C3.77929658,11.7285153 3.75,11.6536463 3.75,11.5625 L3.75,5.9375 C3.75,5.84635371 3.77929658,5.77148467 3.83789062,5.71289063 C3.89648467,5.65429658 3.97135371,5.625 4.0625,5.625 L4.6875,5.625 C4.77864629,5.625 4.85351533,5.65429658 4.91210937,5.71289063 C4.97070342,5.77148467 5,5.84635371 5,5.9375 L5,5.9375 Z M7.5,5.9375 L7.5,11.5625 C7.5,11.6536463 7.47070342,11.7285153 7.41210937,11.7871094 C7.35351533,11.8457034 7.27864629,11.875 7.1875,11.875 L6.5625,11.875 C6.47135371,11.875 6.39648467,11.8457034 6.33789062,11.7871094 C6.27929658,11.7285153 6.25,11.6536463 6.25,11.5625 L6.25,5.9375 C6.25,5.84635371 6.27929658,5.77148467 6.33789062,5.71289063 C6.39648467,5.65429658 6.47135371,5.625 6.5625,5.625 L7.1875,5.625 C7.27864629,5.625 7.35351533,5.65429658 7.41210937,5.71289063 C7.47070342,5.77148467 7.5,5.84635371 7.5,5.9375 L7.5,5.9375 Z M10,5.9375 L10,11.5625 C10,11.6536463 9.97070342,11.7285153 9.91210938,11.7871094 C9.85351533,11.8457034 9.77864629,11.875 9.6875,11.875 L9.0625,11.875 C8.97135371,11.875 8.89648467,11.8457034 8.83789063,11.7871094 C8.77929658,11.7285153 8.75,11.6536463 8.75,11.5625 L8.75,5.9375 C8.75,5.84635371 8.77929658,5.77148467 8.83789063,5.71289063 C8.89648467,5.65429658 8.97135371,5.625 9.0625,5.625 L9.6875,5.625 C9.77864629,5.625 9.85351533,5.65429658 9.91210938,5.71289063 C9.97070342,5.77148467 10,5.84635371 10,5.9375 L10,5.9375 Z M11.25,13.0078125 L11.25,3.75 L2.5,3.75 L2.5,13.0078125 C2.5,13.1510424 2.52278623,13.282877 2.56835938,13.4033203 C2.61393252,13.5237636 2.66113257,13.6116534 2.70996094,13.6669922 C2.75878931,13.722331 2.79296865,13.75 2.8125,13.75 L10.9375,13.75 C10.9570313,13.75 10.9912107,13.722331 11.0400391,13.6669922 C11.0888674,13.6116534 11.1360675,13.5237636 11.1816406,13.4033203 C11.2272138,13.282877 11.25,13.1510424 11.25,13.0078125 L11.25,13.0078125 Z M4.6875,2.5 L9.0625,2.5 L8.59375,1.35742188 C8.54817686,1.29882783 8.49283887,1.2630209 8.42773438,1.25 L5.33203125,1.25 C5.26692676,1.2630209 5.21158877,1.29882783 5.16601563,1.35742188 L4.6875,2.5 Z M13.75,2.8125 L13.75,3.4375 C13.75,3.52864629 13.7207034,3.60351533 13.6621094,3.66210938 C13.6035153,3.72070342 13.5286463,3.75 13.4375,3.75 L12.5,3.75 L12.5,13.0078125 C12.5,13.5481798 12.3470067,14.0152975 12.0410156,14.4091797 C11.7350245,14.8030619 11.3671896,15 10.9375,15 L2.8125,15 C2.38281035,15 2.01497549,14.8095722 1.70898438,14.4287109 C1.40299326,14.0478497 1.25,13.5872423 1.25,13.046875 L1.25,3.75 L0.3125,3.75 C0.221353711,3.75 0.146484668,3.72070342 0.087890625,3.66210938 C0.029296582,3.60351533 0,3.52864629 0,3.4375 L0,2.8125 C0,2.72135371 0.029296582,2.64648467 0.087890625,2.58789063 C0.146484668,2.52929658 0.221353711,2.5 0.3125,2.5 L3.33007812,2.5 L4.01367187,0.869140625 C4.11132861,0.628254004 4.28710811,0.42317793 4.54101563,0.25390625 C4.79492314,0.0846345703 5.05208203,0 5.3125,0 L8.4375,0 C8.69791797,0 8.95507686,0.0846345703 9.20898437,0.25390625 C9.46289189,0.42317793 9.63867139,0.628254004 9.73632813,0.869140625 L10.4199219,2.5 L13.4375,2.5 C13.5286463,2.5 13.6035153,2.52929658 13.6621094,2.58789063 C13.7207034,2.64648467 13.75,2.72135371 13.75,2.8125 L13.75,2.8125 Z" id="trash-o---FontAwesome-Copy-2"></path>
            </g>
        </g>
    </g>
</svg>