<?xml version="1.0" encoding="UTF-8" standalone="no"?>
<svg width="19px" height="20px" viewBox="0 0 19 20" version="1.1" xmlns="http://www.w3.org/2000/svg" xmlns:xlink="http://www.w3.org/1999/xlink">
    <!-- Generator: Sketch 40.3 (33839) - http://www.bohemiancoding.com/sketch -->
    <title>calendar52</title>
    <desc>Created with Sketch.</desc>
    <defs></defs>
    <g id="Symbols" stroke="none" stroke-width="1" fill="none" fill-rule="evenodd">
        <g id="Text-fields-//-calendar-200px" transform="translate(-171.000000, -10.000000)" fill="#000000">
            <g id="Group-6">
                <g id="calendar52" transform="translate(171.000000, 10.000000)">
                    <path d="M18.3612857,3.28032491 C18.0788238,2.99758906 17.7437599,2.85622113 17.3569159,2.85622113 L15.9284423,2.85622113 L15.9284423,1.78472896 C15.9284423,1.29377678 15.7535132,0.873371584 15.4037919,0.523650347 C15.0539337,0.173929111 14.6338025,-0.001 14.1425763,-0.001 L13.4284765,-0.001 C12.9372504,-0.001 12.5169822,0.173929111 12.1672609,0.523650347 C11.8174027,0.873371584 11.6426106,1.29377678 11.6426106,1.78472896 L11.6426106,2.85622113 L7.35705283,2.85622113 L7.35705283,1.78472896 C7.35705283,1.29377678 7.18212372,0.873371584 6.83240249,0.523650347 C6.48268125,0.173929111 6.06227605,-0.001 5.57118689,-0.001 L4.8569501,-0.001 C4.36586093,-0.001 3.94545573,0.173929111 3.5957345,0.523650347 C3.24601326,0.873371584 3.07108415,1.29377678 3.07108415,1.78472896 L3.07108415,2.85622113 L1.64261057,2.85622113 C1.25562957,2.85622113 0.920839632,2.99758906 0.638103779,3.28032491 C0.355367926,3.56306077 0.214,3.89798769 0.214,4.2848317 L0.214,18.5705264 C0.214,18.9572334 0.355367926,19.2920234 0.638103779,19.5748962 C0.920839632,19.8576321 1.25562957,19.999 1.64261057,19.999 L17.3566419,19.999 C17.7434859,19.999 18.0785498,19.8576321 18.3610117,19.5748962 C18.6437475,19.2921604 18.7851155,18.9572334 18.7851155,18.5705264 L18.7851155,4.2848317 C18.7851155,3.8978507 18.6438845,3.56306077 18.3612857,3.28032491 L18.3612857,3.28032491 Z M4.85681311,18.5703894 L1.64261057,18.5703894 L1.64261057,15.3560499 L4.85681311,15.3560499 L4.85681311,18.5703894 L4.85681311,18.5703894 Z M4.85681311,14.6418131 L1.64261057,14.6418131 L1.64261057,11.0706292 L4.85681311,11.0706292 L4.85681311,14.6418131 L4.85681311,14.6418131 Z M4.85681311,10.3561184 L1.64261057,10.3561184 L1.64261057,7.14191585 L4.85681311,7.14191585 L4.85681311,10.3561184 L4.85681311,10.3561184 Z M4.60585765,5.25016094 C4.53517368,5.17947698 4.4998317,5.09591648 4.4998317,4.99906849 L4.4998317,1.78486595 C4.4998317,1.68815494 4.53517368,1.60445746 4.60585765,1.5337735 C4.67654161,1.46308953 4.76010211,1.42774755 4.8569501,1.42774755 L5.57118689,1.42774755 C5.66789789,1.42774755 5.75159538,1.46308953 5.82227934,1.5337735 C5.8929633,1.60445746 5.92830528,1.68815494 5.92830528,1.78486595 L5.92830528,4.99906849 C5.92830528,5.09591648 5.89282632,5.17947698 5.82227934,5.25016094 C5.75159538,5.32084491 5.66803488,5.35618689 5.57118689,5.35618689 L4.8569501,5.35618689 C4.76023909,5.35618689 4.67654161,5.32084491 4.60585765,5.25016094 L4.60585765,5.25016094 Z M9.14250783,18.5703894 L5.5710499,18.5703894 L5.5710499,15.3560499 L9.14250783,15.3560499 L9.14250783,18.5703894 L9.14250783,18.5703894 Z M9.14250783,14.6418131 L5.5710499,14.6418131 L5.5710499,11.0706292 L9.14250783,11.0706292 L9.14250783,14.6418131 L9.14250783,14.6418131 Z M9.14250783,10.3561184 L5.5710499,10.3561184 L5.5710499,7.14191585 L9.14250783,7.14191585 L9.14250783,10.3561184 L9.14250783,10.3561184 Z M13.4283395,18.5703894 L9.8568816,18.5703894 L9.8568816,15.3560499 L13.4283395,15.3560499 L13.4283395,18.5703894 L13.4283395,18.5703894 Z M13.4283395,14.6418131 L9.8568816,14.6418131 L9.8568816,11.0706292 L13.4283395,11.0706292 L13.4283395,14.6418131 L13.4283395,14.6418131 Z M13.4283395,10.3561184 L9.8568816,10.3561184 L9.8568816,7.14191585 L13.4283395,7.14191585 L13.4283395,10.3561184 L13.4283395,10.3561184 Z M13.1771101,5.25016094 C13.1065631,5.17947698 13.0713581,5.09591648 13.0713581,4.99906849 L13.0713581,1.78486595 C13.0713581,1.68815494 13.1065631,1.60445746 13.1771101,1.5337735 C13.2477941,1.46308953 13.3314915,1.42774755 13.4283395,1.42774755 L14.1424393,1.42774755 C14.2392873,1.42774755 14.3229848,1.46308953 14.3936688,1.5337735 C14.4643527,1.60445746 14.4995577,1.68815494 14.4995577,1.78486595 L14.4995577,4.99906849 C14.4995577,5.09591648 14.4642158,5.17947698 14.3936688,5.25016094 C14.3231218,5.32084491 14.2392873,5.35618689 14.1424393,5.35618689 L13.4283395,5.35618689 C13.3314915,5.35618689 13.2476571,5.32084491 13.1771101,5.25016094 L13.1771101,5.25016094 Z M17.3566419,18.5703894 L14.1423024,18.5703894 L14.1423024,15.3560499 L17.3566419,15.3560499 L17.3566419,18.5703894 L17.3566419,18.5703894 Z M17.3566419,14.6418131 L14.1423024,14.6418131 L14.1423024,11.0706292 L17.3566419,11.0706292 L17.3566419,14.6418131 L17.3566419,14.6418131 Z M17.3566419,10.3561184 L14.1423024,10.3561184 L14.1423024,7.14191585 L17.3566419,7.14191585 L17.3566419,10.3561184 L17.3566419,10.3561184 Z" id="Shape" fill="#FFFFFF"></path>
                </g>
            </g>
        </g>
    </g>
</svg>