<?xml version="1.0" encoding="UTF-8" standalone="no"?>
<svg width="140px" height="72px" viewBox="0 0 140 72" version="1.1" xmlns="http://www.w3.org/2000/svg" xmlns:xlink="http://www.w3.org/1999/xlink">
    <!-- Generator: Sketch 39.1 (31720) - http://www.bohemiancoding.com/sketch -->
    <title>exam</title>
    <desc>Created with Sketch.</desc>
    <defs></defs>
    <g id="Etusivu" stroke="none" stroke-width="1" fill="none" fill-rule="evenodd">
        <g id="Opiskelija---Etusivu-DESKTOP" transform="translate(-50.000000, -15.000000)">
            <g id="exam" transform="translate(50.000000, 15.000000)">
                <path d="M2.59310899,55.9959225 L18.3488311,55.9959225 C20.0730817,55.9959225 21.206624,55.8324794 21.7443079,55.5082539 C22.2795123,55.1836484 22.549594,54.484264 22.549594,53.4152323 C22.549594,50.7636534 21.6155613,48.3790948 19.7474959,46.2638373 C17.8817193,44.1455389 15.4984768,43.0892405 12.6055886,43.0892405 C9.80558856,43.0892405 7.43512534,44.0776911 5.4989673,46.0521215 C3.55975749,48.0320634 2.59310899,50.3440228 2.59310899,52.9950315 L2.59310899,55.9959225 Z M0.141583106,59.1404913 L0.141583106,52.9950315 C0.141583106,49.6471091 1.36610627,46.7515058 3.81744142,44.3091721 C6.2689673,41.8668383 9.19733243,40.6469068 12.6055886,40.6469068 C15.9682589,40.6469068 18.8741172,41.8438423 21.322782,44.2388535 C23.7743079,46.6359554 25.0011199,49.624303 25.0011199,53.2042767 C25.0011199,54.4164162 24.859594,55.3923234 24.579594,56.134279 C24.2992125,56.8792753 23.8322916,57.4148365 23.1784496,57.7396321 C22.5246076,58.0667083 21.9310381,58.26265 21.3933542,58.3329685 C20.8556703,58.4034771 20.1211471,58.4388264 19.1869237,58.4388264 L2.59310899,58.4388264 L2.59310899,59.1404913 C2.59310899,62.2575029 3.68869482,64.7473492 5.88253678,66.6064192 C8.07618801,68.4679599 10.9240627,69.3988252 14.4255886,69.3988252 C16.1527003,69.3988252 17.6015286,69.1546109 18.7678774,68.6669423 C19.9342262,68.176423 20.8102752,67.7007277 21.3933542,67.235295 C21.976624,66.7700523 22.4084496,66.5385713 22.6886403,66.5385713 C23.0142262,66.5385713 23.3071962,66.6767378 23.5644986,66.9564915 C23.8195123,67.235295 23.9507384,67.5142885 23.9507384,67.7938522 C23.9507384,68.2592849 23.5747984,68.8052988 22.8297847,69.4341746 C22.0824823,70.0601996 20.9390218,70.6187568 19.3990218,71.1069955 C17.856733,71.594664 16.1527003,71.8409689 14.286733,71.8409689 C10.1315559,71.8409689 6.73607902,70.6668395 4.09782289,68.3170601 C1.45956676,65.9672808 0.141583106,62.9086145 0.141583106,59.1404913 L0.141583106,59.1404913 Z" id="Fill-1" fill="#FFFFFF"></path>
                <path d="M67.6448529,62.629659 C67.6448529,64.8633178 68.3086131,66.548682 69.6391853,67.6880323 C70.9697575,68.8304234 72.7088856,69.3986732 74.8577139,69.3986732 C77.376951,69.3986732 79.7703025,68.5155104 82.0349074,66.7470943 C84.2966512,64.9788682 85.4303842,63.3060473 85.4303842,61.7240703 L85.4303842,55.8631155 L81.5780954,55.8631155 C79.4775232,55.8631155 77.7155068,55.933434 76.2914741,56.0716004 C74.8674414,56.2099569 73.4312016,56.5014937 71.9846621,56.9446906 C70.5379319,57.3873172 69.452455,58.0840409 68.7303297,59.0371421 C68.0057248,59.9908135 67.6448529,61.1885092 67.6448529,62.629659 M65.193327,62.629659 C65.193327,59.1405293 66.5818828,56.7331648 69.3588038,55.4071853 C72.1361063,54.0821561 76.1877139,53.4200215 81.5100027,53.4200215 L85.4303842,53.4200215 L85.4303842,52.753896 C85.4303842,49.7777115 85.953,48.4950634 84.413,46.3317232 C82.8707112,44.1708536 79.2680954,43.0890885 76.1877139,43.0890885 C74.9258065,43.0890885 73.7468692,43.2399883 72.6509019,43.5419779 C71.5526458,43.8437774 70.7019646,44.1581203 70.0959973,44.4829159 C69.4877411,44.8099921 69.0912016,44.9736252 68.9044714,44.9736252 C68.5310109,44.9736252 68.2281226,44.8099921 67.9931362,44.4829159 C67.7610109,44.1581203 67.6448529,43.8563207 67.6448529,43.5773272 C67.6448529,42.8781329 68.566297,42.2159984 70.4091853,41.5871226 C72.2545531,40.9612876 74.2265695,40.6467547 76.3271417,40.6467547 C80.3411744,40.6467547 84.5621553,41.9141988 86.4073324,44.4498472 C88.2504114,46.9853055 87.8817193,48.8949288 87.8817193,52.753896 L87.8817193,70.1659054 C87.8817193,71.0034562 87.4827003,71.4213764 86.6903842,71.4213764 C86.3163515,71.4213764 86.0134632,71.3052557 85.7811471,71.0714941 C85.5463515,70.8400131 85.4303842,70.5380235 85.4303842,70.1659054 L85.4303842,66.5384193 C82.3480954,70.0727809 78.8488583,71.841007 74.9258065,71.841007 C72.0325368,71.841007 69.6847711,71.0612314 67.8899482,69.5014903 C66.0922643,67.94479 65.193327,65.653356 65.193327,62.629659" id="Fill-3" fill="#FFFFFF"></path>
                <path d="M95.3720627,70.1659054 L95.3720627,44.8274767 C95.3720627,44.0372484 95.7686022,43.6398537 96.5637793,43.6398537 C97.4043515,43.6398537 97.8232071,44.0372484 97.8232071,44.8274767 L97.8232071,45.9493424 C99.8301281,42.4151709 102.958384,40.6467547 107.207213,40.6467547 C109.587785,40.6467547 111.698466,41.285323 113.543834,42.5660706 C115.386722,43.8437774 116.775278,45.5291416 117.709311,47.6244439 C118.87585,45.3457433 120.418139,43.6122964 122.331599,42.4254336 C124.245823,41.2402812 126.252744,40.6467547 128.352744,40.6467547 C131.481,40.6467547 134.177049,41.7862951 136.441845,44.0649957 C138.70645,46.3444565 139.837322,49.3903894 139.837322,53.2043147 L139.837322,70.1659054 C139.837322,70.490701 139.708766,70.7822379 139.453561,71.0389956 C139.195877,71.2927124 138.903098,71.4213764 138.577322,71.4213764 C138.249065,71.4213764 137.969065,71.2927124 137.736749,71.0389956 C137.501954,70.7822379 137.386177,70.490701 137.386177,70.1659054 L137.386177,53.2043147 C137.386177,50.0422612 136.464733,47.5668587 134.621845,45.7756366 C132.775905,43.9844145 130.665605,43.0890885 128.285223,43.0890885 C125.808139,43.0890885 123.614488,44.0072205 121.701027,45.8434845 C119.786995,47.6822192 118.830455,49.9964591 118.830455,52.7863945 L118.830455,70.236224 C118.830455,71.0262622 118.411218,71.4213764 117.570646,71.4213764 C116.775278,71.4213764 116.378738,71.0262622 116.378738,70.236224 L116.378738,52.8567131 C116.378738,50.1125797 115.50555,47.7981497 113.753262,45.9139931 C112.003834,44.0300265 109.868357,43.0890885 107.346068,43.0890885 C104.82664,43.0890885 102.607812,44.0199538 100.693779,45.8790239 C98.7803188,47.7405645 97.8232071,50.1828983 97.8232071,53.2043147 L97.8232071,70.1659054 C97.8232071,70.490701 97.6946512,70.7822379 97.4369673,71.0389956 C97.1823351,71.2927124 96.8897466,71.4213764 96.5637793,71.4213764 C96.2355232,71.4213764 95.9555232,71.2927124 95.7232071,71.0389956 C95.4884114,70.7822379 95.3720627,70.490701 95.3720627,70.1659054" id="Fill-5" fill="#FFFFFF"></path>
                <path d="M58.0780272,71.8061708 C57.7406158,71.8061708 57.4037766,71.6754163 57.1502888,71.4150477 L45.6371008,59.5869 L34.1237221,71.4150477 C33.6270463,71.9257123 32.8085995,71.9378755 32.2959019,71.442795 C31.7835858,70.9475245 31.7709973,70.1322096 32.2682452,69.621545 L44.7091717,56.8404861 C45.1961199,56.3400842 46.077891,56.3400842 46.5648392,56.8404861 L59.0057657,69.621545 C59.5030136,70.1322096 59.4904251,70.9475245 58.978109,71.442795 C58.7271008,71.6852989 58.4022779,71.8061708 58.0780272,71.8061708" id="Fill-7" fill="#84BF41"></path>
                <path d="M45.6394087,54.9497347 C45.3019973,54.9497347 44.9771744,54.8184101 44.7345586,54.5814177 L32.2911526,42.4261938 C31.7811253,41.9284526 31.7731144,41.1127576 32.2730327,40.6049437 C32.7725695,40.0963697 33.5906349,40.0885776 34.1008529,40.586889 L45.4990272,51.7209737 L84.6273106,0.585145233 C85.059327,0.0197462047 85.8703351,-0.0899126993 86.4387275,0.341501013 C87.0059755,0.773104776 87.1158392,1.58119777 86.6826785,2.1465968 L46.6672834,54.442491 C46.4425967,54.7363085 46.1019428,54.9198969 45.732297,54.9465039 C45.7012071,54.9485944 45.6701172,54.9497347 45.6394087,54.9497347" id="Fill-9" fill="#84BF41"></path>
            </g>
        </g>
    </g>
</svg>