<?xml version="1.0" encoding="UTF-8" standalone="no"?>
<svg width="20px" height="22px" viewBox="0 0 20 22" version="1.1" xmlns="http://www.w3.org/2000/svg" xmlns:xlink="http://www.w3.org/1999/xlink">
    <!-- Generator: Sketch 39.1 (31720) - http://www.bohemiancoding.com/sketch -->
    <title>Shape</title>
    <desc>Created with Sketch.</desc>
    <defs>
        <path d="M1207.66565,467.471359 L1206.77764,466.583754 L1202.33687,471.023586 C1201.60114,471.759023 1201.60114,472.951977 1202.33687,473.687469 C1203.07248,474.422906 1204.26543,474.422906 1205.00117,473.687469 L1210.33008,468.35943 C1211.55664,467.133582 1211.55664,465.145691 1210.33008,463.919816 C1209.10418,462.693395 1207.11566,462.693395 1205.8897,463.919816 L1200.2943,469.513609 L1200.29476,469.514047 C1200.2908,469.518203 1200.28639,469.521922 1200.28278,469.525613 C1198.57241,471.23591 1198.57241,474.00802 1200.28278,475.717688 C1201.99251,477.427437 1204.76535,477.427437 1206.47598,475.717688 C1206.47973,475.713941 1206.48303,475.709922 1206.48719,475.705711 L1206.48763,475.706176 L1210.30662,471.88773 L1209.41814,471.000152 L1205.59939,474.818188 L1205.59917,474.818188 C1205.59513,474.821852 1205.59146,474.82598 1205.58761,474.829727 C1204.3698,476.047316 1202.38866,476.047316 1201.17055,474.829727 C1199.95291,473.612355 1199.95291,471.631574 1201.17055,470.414012 C1201.17471,470.409855 1201.17881,470.406055 1201.18269,470.402445 L1201.18207,470.401625 L1206.77769,464.807559 C1207.51203,464.072859 1208.70739,464.072859 1209.44215,464.807559 C1210.17649,465.542203 1210.17649,466.737316 1209.44215,467.471387 L1204.11323,472.799316 C1203.86801,473.044344 1203.46992,473.044344 1203.22494,472.799316 C1202.9803,472.554781 1202.9803,472.156301 1203.22494,471.911738 L1207.66565,467.471359 L1207.66565,467.471359 Z" id="path-1"></path>
        <filter x="-50%" y="-50%" width="200%" height="200%" filterUnits="objectBoundingBox" id="filter-2">
            <feOffset dx="0" dy="2" in="SourceAlpha" result="shadowOffsetOuter1"></feOffset>
            <feGaussianBlur stdDeviation="2" in="shadowOffsetOuter1" result="shadowBlurOuter1"></feGaussianBlur>
            <feColorMatrix values="0 0 0 0 0   0 0 0 0 0   0 0 0 0 0  0 0 0 0.2 0" type="matrix" in="shadowBlurOuter1"></feColorMatrix>
        </filter>
    </defs>
    <g id="Tenttitila" stroke="none" stroke-width="1" fill="none" fill-rule="evenodd">
        <g id="Tenttitila---Ohjesivu" transform="translate(-1195.000000, -461.000000)">
            <g id="Shape">
                <use fill="black" fill-opacity="1" filter="url(#filter-2)" xlink:href="#path-1"></use>
                <use fill="#FFFFFF" fill-rule="evenodd" xlink:href="#path-1"></use>
            </g>
        </g>
    </g>
</svg>