<?xml version="1.0" encoding="UTF-8" standalone="no"?>
<svg width="30px" height="30px" viewBox="0 0 30 30" version="1.1" xmlns="http://www.w3.org/2000/svg" xmlns:xlink="http://www.w3.org/1999/xlink">
    <!-- Generator: Sketch 39.1 (31720) - http://www.bohemiancoding.com/sketch -->
    <title>Group 4</title>
    <desc>Created with Sketch.</desc>
    <defs>
        <circle id="path-1" cx="15" cy="15" r="15"></circle>
        <mask id="mask-2" maskContentUnits="userSpaceOnUse" maskUnits="objectBoundingBox" x="0" y="0" width="30" height="30" fill="white">
            <use xlink:href="#path-1"></use>
        </mask>
        <path d="M6,22 L6,20.4780467 C6,20.4780467 6.10060714,19.5438044 7.24371429,19.2539035 C7.24371429,19.2539035 9.08464286,18.5923726 10.5265714,17.9746064 C11.2722857,17.6553885 11.4326786,17.4635624 12.1849286,17.1363298 C12.1849286,17.1363298 12.2634643,16.7562633 12.2351786,16.5299529 L12.8235,16.5299529 C12.8235,16.5299529 12.9578571,16.6070419 12.8235,15.7138223 C12.8235,15.7138223 12.1063929,15.5265309 12.0729643,14.1038125 C12.0729643,14.1038125 11.5343571,14.2823509 11.5014643,13.4201357 C11.4789643,12.8355883 11.0195357,12.3282354 11.6807143,11.9092553 L11.3446071,11.0160357 C11.3446071,11.0160357 10.6723929,7.40993855 12.6050357,7.93933197 C11.7897857,6.9798855 17.22675,6.02064994 17.5798929,9.06424025 C17.5798929,9.06424025 17.8316786,10.707469 17.5798929,11.8321663 C17.5798929,11.8321663 18.3739286,11.7417898 17.8430357,13.2439173 C17.8430357,13.2439173 17.5518214,14.3246391 17.1035357,14.0819829 C17.1035357,14.0819829 17.1767143,15.449442 16.47075,15.6812361 C16.47075,15.6812361 16.521,16.4089939 16.521,16.4585586 L17.1935357,16.5577935 C17.1935357,16.5577935 17.0923929,17.1534138 17.21025,17.2194298 C17.21025,17.2194298 18.0076071,17.7569434 18.9579643,17.9970687 C20.79,18.4599188 22.9579286,19.2541144 22.9579286,19.9489696 C22.9579286,19.9489696 23.1428571,20.8753026 23.1428571,22 L6,22 Z" id="path-3"></path>
        <filter x="-50%" y="-50%" width="200%" height="200%" filterUnits="objectBoundingBox" id="filter-4">
            <feOffset dx="0" dy="1" in="SourceAlpha" result="shadowOffsetOuter1"></feOffset>
            <feColorMatrix values="0 0 0 0 0   0 0 0 0 0   0 0 0 0 0  0 0 0 1 0" type="matrix" in="shadowOffsetOuter1"></feColorMatrix>
        </filter>
    </defs>
    <g id="Symbols" stroke="none" stroke-width="1" fill="none" fill-rule="evenodd">
        <g id="Opiskelijan-tiedot" transform="translate(0.000000, -9.000000)">
            <g id="Group-4">
                <g transform="translate(0.000000, 9.000000)">
                    <g id="Checkbox-Circle-Copy-3" stroke-width="2" stroke="#E7E7E7">
                        <g id="Checkbox-Circle">
                            <use id="Oval-41-Copy-3" mask="url(#mask-2)" transform="translate(15.000000, 15.000000) rotate(-180.000000) translate(-15.000000, -15.000000) " xlink:href="#path-1"></use>
                        </g>
                    </g>
                    <g id="User">
                        <use fill="black" fill-opacity="1" filter="url(#filter-4)" xlink:href="#path-3"></use>
                        <use fill="#E7E7E7" fill-rule="evenodd" xlink:href="#path-3"></use>
                    </g>
                </g>
            </g>
        </g>
    </g>
</svg>