<?xml version="1.0" encoding="UTF-8" standalone="no"?>
<svg
   xmlns:dc="http://purl.org/dc/elements/1.1/"
   xmlns:cc="http://creativecommons.org/ns#"
   xmlns:rdf="http://www.w3.org/1999/02/22-rdf-syntax-ns#"
   xmlns:svg="http://www.w3.org/2000/svg"
   xmlns="http://www.w3.org/2000/svg"
   xml:space="preserve"
   id="svg2"
   height="40"
   width="78.000046"
   version="1.1"><metadata
     id="metadata8"><rdf:RDF><cc:Work
         rdf:about=""><dc:format>image/svg+xml</dc:format><dc:type
           rdf:resource="http://purl.org/dc/dcmitype/StillImage" /><dc:title></dc:title></cc:Work></rdf:RDF></metadata><defs
     id="defs6"><clipPath
       id="clipPath20"><path
         id="path22"
         d="m 0,254.001 269.136,0 L 269.136,0 0,0 Z" /></clipPath><clipPath
       id="clipPath20-1"><path
         id="path22-2"
         d="m 0,254.001 269.136,0 L 269.136,0 0,0 Z" /></clipPath></defs><g
     style="fill:#ffffff"
     id="g4178"><path
       id="rect4864"
       d="m 5e-5,0 78,0 0,40 -78,0 z"
       style="opacity:0;fill:#ffffff;fill-opacity:1;stroke:none" /><g
       id="text4182-3"
       style="font-style:normal;font-weight:normal;font-size:5.41174889px;line-height:1000%;font-family:sans-serif;letter-spacing:0px;word-spacing:0px;fill:#ffffff;fill-opacity:1;stroke:none;stroke-width:1px;stroke-linecap:butt;stroke-linejoin:miter;stroke-opacity:1"
       transform="translate(626.153,-2083.2998)"><path
         id="path4143"
         style="font-style:normal;font-variant:normal;font-weight:bold;font-stretch:normal;font-size:10.82349777px;font-family:'Open Sans';-inkscape-font-specification:'Open Sans Bold';fill:#ffffff"
         d="m -621.70311,2107.126 -4.44989,0 0,-7.7266 4.44989,0 0,1.3424 -2.81157,0 0,1.6965 2.61603,0 0,1.3423 -2.61603,0 0,1.9924 2.81157,0 0,1.353 z" /><path
         id="path4145"
         style="font-style:normal;font-variant:normal;font-weight:bold;font-stretch:normal;font-size:10.82349777px;font-family:'Open Sans';-inkscape-font-specification:'Open Sans Bold';fill:#ffffff"
         d="m -613.83916,2107.126 -1.87086,0 -1.79687,-2.9226 -1.79687,2.9226 -1.75459,0 2.56318,-3.9848 -2.39935,-3.7418 1.80744,0 1.66475,2.7799 1.63304,-2.7799 1.76516,0 -2.42578,3.8316 2.61075,3.895 z" /><path
         id="path4147"
         style="font-style:normal;font-variant:normal;font-weight:bold;font-stretch:normal;font-size:10.82349777px;font-family:'Open Sans';-inkscape-font-specification:'Open Sans Bold';fill:#ffffff"
         d="m -608.12617,2107.126 -0.5602,-1.8392 -2.81686,0 -0.5602,1.8392 -1.76516,0 2.72701,-7.7583 2.00298,0 2.73759,7.7583 -1.76516,0 z m -0.95129,-3.2132 q -0.77688,-2.4998 -0.87729,-2.8275 -0.0951,-0.3276 -0.13741,-0.5179 -0.1744,0.6765 -0.99885,3.3454 l 2.01355,0 z" /><path
         id="path4149"
         style="font-style:normal;font-variant:normal;font-weight:bold;font-stretch:normal;font-size:10.82349777px;font-family:'Open Sans';-inkscape-font-specification:'Open Sans Bold';fill:#ffffff"
         d="m -602.12251,2107.126 -1.86029,-6.0618 -0.0476,0 q 0.10042,1.8497 0.10042,2.468 l 0,3.5938 -1.46392,0 0,-7.7266 2.23023,0 1.82858,5.9086 0.0317,0 1.93956,-5.9086 2.23023,0 0,7.7266 -1.52734,0 0,-3.6572 q 0,-0.2589 0.005,-0.5972 0.0106,-0.3382 0.074,-1.7968 l -0.0476,0 -1.99241,6.0512 -1.50091,0 z" /><path
         id="path4151"
         style="font-style:normal;font-variant:normal;font-weight:bold;font-stretch:normal;font-size:10.82349777px;font-family:'Open Sans';-inkscape-font-specification:'Open Sans Bold';fill:#ffffff"
         d="m -595.18343,2107.126 0,-7.7266 1.63833,0 0,7.7266 -1.63833,0 z" /><path
         id="path4153"
         style="font-style:normal;font-variant:normal;font-weight:bold;font-stretch:normal;font-size:10.82349777px;font-family:'Open Sans';-inkscape-font-specification:'Open Sans Bold';fill:#ffffff"
         d="m -584.73516,2107.126 -2.08225,0 -3.36121,-5.8451 -0.0476,0 q 0.10041,1.5484 0.10041,2.2091 l 0,3.636 -1.46392,0 0,-7.7266 2.0664,0 3.35592,5.787 0.037,0 q -0.0793,-1.5062 -0.0793,-2.1298 l 0,-3.6572 1.47449,0 0,7.7266 z" /><path
         id="path4155"
         style="font-style:normal;font-variant:normal;font-weight:bold;font-stretch:normal;font-size:10.82349777px;font-family:'Open Sans';-inkscape-font-specification:'Open Sans Bold';fill:#ffffff"
         d="m -578.0656,2107.126 -0.5602,-1.8392 -2.81686,0 -0.5602,1.8392 -1.76516,0 2.72702,-7.7583 2.00298,0 2.73758,7.7583 -1.76516,0 z m -0.95128,-3.2132 q -0.77688,-2.4998 -0.8773,-2.8275 -0.0951,-0.3276 -0.1374,-0.5179 -0.17441,0.6765 -0.99885,3.3454 l 2.01355,0 z" /><path
         id="path4157"
         style="font-style:normal;font-variant:normal;font-weight:bold;font-stretch:normal;font-size:10.82349777px;font-family:'Open Sans';-inkscape-font-specification:'Open Sans Bold';fill:#ffffff"
         d="m -573.69498,2102.8293 0.5285,0 q 0.77688,0 1.14682,-0.2589 0.36995,-0.259 0.36995,-0.8139 0,-0.5496 -0.38052,-0.7822 -0.37523,-0.2325 -1.16796,-0.2325 l -0.49679,0 0,2.0875 z m 0,1.3318 0,2.9649 -1.63832,0 0,-7.7266 2.25137,0 q 1.57491,0 2.33065,0.5761 0.75574,0.5708 0.75574,1.7387 0,0.6818 -0.37523,1.2156 -0.37522,0.5284 -1.06226,0.8297 1.74402,2.6054 2.27251,3.3665 l -1.81801,0 -1.84443,-2.9649 -0.87202,0 z" /><path
         id="path4159"
         style="font-style:normal;font-variant:normal;font-weight:bold;font-stretch:normal;font-size:10.82349777px;font-family:'Open Sans';-inkscape-font-specification:'Open Sans Bold';fill:#ffffff"
         d="m -568.1881,2107.126 0,-7.7266 1.63832,0 0,7.7266 -1.63832,0 z" /><path
         id="path4161"
         style="font-style:normal;font-variant:normal;font-weight:bold;font-stretch:normal;font-size:10.82349777px;font-family:'Open Sans';-inkscape-font-specification:'Open Sans Bold';fill:#ffffff"
         d="m -558.30532,2099.3994 0,4.9996 q 0,0.8561 -0.38579,1.5009 -0.38052,0.6447 -1.10455,0.9883 -0.72403,0.3435 -1.71231,0.3435 -1.49035,0 -2.31479,-0.7611 -0.82445,-0.7663 -0.82445,-2.0928 l 0,-4.9784 1.63304,0 0,4.73 q 0,0.8932 0.35937,1.3107 0.35938,0.4175 1.18911,0.4175 0.8033,0 1.16268,-0.4175 0.36466,-0.4228 0.36466,-1.3212 l 0,-4.7195 1.63303,0 z" /><path
         id="path4163"
         style="font-style:normal;font-variant:normal;font-weight:bold;font-stretch:normal;font-size:10.82349777px;font-family:'Open Sans';-inkscape-font-specification:'Open Sans Bold';fill:#ffffff"
         d="m -553.14196,2107.126 -1.86029,-6.0618 -0.0476,0 q 0.10041,1.8497 0.10041,2.468 l 0,3.5938 -1.46392,0 0,-7.7266 2.23023,0 1.82858,5.9086 0.0317,0 1.93956,-5.9086 2.23024,0 0,7.7266 -1.52734,0 0,-3.6572 q 0,-0.2589 0.005,-0.5972 0.0106,-0.3382 0.074,-1.7968 l -0.0476,0 -1.99241,6.0512 -1.50092,0 z" /></g></g></svg>