<?xml version="1.0" encoding="UTF-8" standalone="no"?>
<svg width="13px" height="12px" viewBox="0 0 13 12" version="1.1" xmlns="http://www.w3.org/2000/svg" xmlns:xlink="http://www.w3.org/1999/xlink">
    <!-- Generator: Sketch 40.3 (33839) - http://www.bohemiancoding.com/sketch -->
    <title>Group 5</title>
    <desc>Created with Sketch.</desc>
    <defs></defs>
    <g id="Tentin-muokkaaminen" stroke="none" stroke-width="1" fill="none" fill-rule="evenodd">
        <g id="Tentti---Perustietojen-muokkaus" transform="translate(-456.000000, -1002.000000)">
            <g id="Group-5" transform="translate(456.000000, 1002.000000)">
                <ellipse id="Oval-41-Copy-7" fill="#999999" transform="translate(6.190476, 6.000000) rotate(-180.000000) translate(-6.190476, -6.000000) " cx="6.19047619" cy="6" rx="6.19047619" ry="6"></ellipse>
                <path d="M5.09330344,6.90621008 L5.09330344,6.57630894 C5.09330344,6.2909876 5.15423052,6.04282121 5.2760865,5.8318023 C5.39794249,5.6207834 5.62084644,5.39639342 5.94480504,5.15862564 C6.25687525,4.93571835 6.46268989,4.75442314 6.56225515,4.61473457 C6.66182041,4.475046 6.71160229,4.31901324 6.71160229,4.1466316 C6.71160229,3.95344528 6.64027303,3.80632867 6.49761236,3.70527736 C6.35495169,3.60422606 6.15582416,3.55370116 5.9002238,3.55370116 C5.45440922,3.55370116 4.94618821,3.69933174 4.37554554,3.99059727 L3.88961007,3.01426821 C4.55238776,2.64275606 5.25527821,2.45700277 5.99830252,2.45700277 C6.61055455,2.45700277 7.09722817,2.60411937 7.45833799,2.898357 C7.8194478,3.19259462 8,3.58490558 8,4.07530162 C8,4.40223231 7.92569868,4.68457732 7.77709382,4.9223451 C7.62848896,5.16011287 7.34614396,5.42759761 6.93005034,5.72480734 C6.64472901,5.93582624 6.46417681,6.09631708 6.38838833,6.20628468 C6.31259985,6.31625228 6.27470618,6.46039683 6.27470618,6.63872267 L6.27470618,6.90621008 L5.09330344,6.90621008 Z M4.95064348,8.43088834 C4.95064348,8.18123217 5.01751467,7.99250683 5.15125904,7.86470665 C5.28500342,7.73690647 5.47967287,7.67300733 5.73527323,7.67300733 C5.9819573,7.67300733 6.17291168,7.73839249 6.30814211,7.86916477 C6.44337253,7.99993705 6.51098673,8.18717637 6.51098673,8.43088834 C6.51098673,8.66568402 6.44262952,8.8506943 6.30591305,8.98592472 C6.16919657,9.12115515 5.9789852,9.18876935 5.73527323,9.18876935 C5.48561706,9.18876935 5.29243364,9.12264117 5.15571717,8.99038285 C5.01900069,8.85812452 4.95064348,8.67162822 4.95064348,8.43088834 L4.95064348,8.43088834 Z" id="?" fill="#FFFFFF"></path>
            </g>
        </g>
    </g>
</svg>