<?xml version="1.0" encoding="UTF-8" standalone="no"?>
<svg width="38px" height="30px" viewBox="0 0 38 30" version="1.1" xmlns="http://www.w3.org/2000/svg" xmlns:xlink="http://www.w3.org/1999/xlink">
    <!-- Generator: Sketch 39.1 (31720) - http://www.bohemiancoding.com/sketch -->
    <title>Hide-button</title>
    <desc>Created with Sketch.</desc>
    <defs></defs>
    <g id="Tenttitila" stroke="none" stroke-width="1" fill="none" fill-rule="evenodd">
        <g id="Tenttitila---kysymystyypit" transform="translate(-1328.000000, -27.000000)">
            <g id="Hide-button" transform="translate(1328.000000, 27.000000)">
                <g id="Group">
                    <rect id="Rectangle-6" fill="#3CA34F" x="0.5" y="0" width="37" height="30" rx="4"></rect>
                    <path d="M18.63925,18.5 C16.7983333,18.5 15.3059167,17.156825 15.3059167,15.5 C15.3059167,13.843175 16.7983333,12.5 18.63925,12.5 C20.4801667,12.5 21.9725833,13.843175 21.9725833,15.5 C21.9725833,17.156825 20.4801667,18.5 18.63925,18.5 Z M18.63925,14.375 C17.9489167,14.375 17.38925,14.8787 17.38925,15.5 C17.38925,16.1213 17.9489167,16.625 18.63925,16.625 C19.3295833,16.625 19.88925,16.1213 19.88925,15.5 C19.88925,14.8787 19.3295833,14.375 18.63925,14.375 Z M18.63925,11 C15.2221667,11 12.286,12.8513 11,15.5 C12.286,18.1487 15.2221667,20 18.63925,20 C22.0563333,20 24.9925,18.1487 26.2785,15.5 C24.9925,12.8513 22.0563333,11 18.63925,11" id="View-/-Preview" fill="#FFFFFF"></path>
                    <path d="M27.0080452,7.99195498 L11.4667036,23.5332966" id="Line" stroke="#FFFFFF" stroke-linecap="square"></path>
                </g>
            </g>
        </g>
    </g>
</svg>