<?xml version="1.0" encoding="UTF-8" standalone="no"?>
<svg width="18px" height="16px" viewBox="0 0 18 16" version="1.1" xmlns="http://www.w3.org/2000/svg" xmlns:xlink="http://www.w3.org/1999/xlink">
    <!-- Generator: Sketch 39.1 (31720) - http://www.bohemiancoding.com/sketch -->
    <title>User</title>
    <desc>Created with Sketch.</desc>
    <defs>
        <path d="M0,23 L0,21.4780467 C0,21.4780467 0.100607143,20.5438044 1.24371429,20.2539035 C1.24371429,20.2539035 3.08464286,19.5923726 4.52657143,18.9746064 C5.27228571,18.6553885 5.43267857,18.4635624 6.18492857,18.1363298 C6.18492857,18.1363298 6.26346429,17.7562633 6.23517857,17.5299529 L6.8235,17.5299529 C6.8235,17.5299529 6.95785714,17.6070419 6.8235,16.7138223 C6.8235,16.7138223 6.10639286,16.5265309 6.07296429,15.1038125 C6.07296429,15.1038125 5.53435714,15.2823509 5.50146429,14.4201357 C5.47896429,13.8355883 5.01953571,13.3282354 5.68071429,12.9092553 L5.34460714,12.0160357 C5.34460714,12.0160357 4.67239286,8.40993855 6.60503571,8.93933197 C5.78978571,7.9798855 11.22675,7.02064994 11.5798929,10.0642403 C11.5798929,10.0642403 11.8316786,11.707469 11.5798929,12.8321663 C11.5798929,12.8321663 12.3739286,12.7417898 11.8430357,14.2439173 C11.8430357,14.2439173 11.5518214,15.3246391 11.1035357,15.0819829 C11.1035357,15.0819829 11.1767143,16.449442 10.47075,16.6812361 C10.47075,16.6812361 10.521,17.4089939 10.521,17.4585586 L11.1935357,17.5577935 C11.1935357,17.5577935 11.0923929,18.1534138 11.21025,18.2194298 C11.21025,18.2194298 12.0076071,18.7569434 12.9579643,18.9970687 C14.79,19.4599188 16.9579286,20.2541144 16.9579286,20.9489696 C16.9579286,20.9489696 17.1428571,21.8753026 17.1428571,23 L0,23 Z" id="path-1"></path>
        <filter x="-50%" y="-50%" width="200%" height="200%" filterUnits="objectBoundingBox" id="filter-2">
            <feOffset dx="0" dy="1" in="SourceAlpha" result="shadowOffsetOuter1"></feOffset>
            <feColorMatrix values="0 0 0 0 1   0 0 0 0 1   0 0 0 0 1  0 0 0 1 0" type="matrix" in="shadowOffsetOuter1"></feColorMatrix>
        </filter>
    </defs>
    <g id="Tenttitila" stroke="none" stroke-width="1" fill="none" fill-rule="evenodd">
        <g id="Tenttitila---Ohjesivu" transform="translate(-1078.000000, -210.000000)">
            <g id="Group-2" transform="translate(1078.000000, 202.000000)">
                <g id="User">
                    <use fill="black" fill-opacity="1" filter="url(#filter-2)" xlink:href="#path-1"></use>
                    <use fill="#2C2C2C" fill-rule="evenodd" xlink:href="#path-1"></use>
                </g>
            </g>
        </g>
    </g>
</svg>